<mxfile host="app.diagrams.net" modified="2024-06-18T16:36:37.444Z" agent="Mozilla/5.0 (Macintosh; Intel Mac OS X 10_15_7) AppleWebKit/537.36 (KHTML, like Gecko) Chrome/125.0.0.0 Safari/537.36" version="24.5.5" etag="tpV7hlur1ZRmkf-L_XRY" type="github">
  <diagram name="Page-1" id="OeWZNppwvXTl43029M_q">
    <mxGraphModel>
      <root>
        <mxCell id="0" />
        <mxCell id="1" parent="0" />
      </root>
    </mxGraphModel>
  </diagram>
</mxfile>
